<svg xmlns="http://www.w3.org/2000/svg" viewBox="0 0 800 600" width="800" height="600">
  <rect width="800" height="600" fill="#ffffff"/>
  <rect x="50" y="50" width="700" height="480" fill="none" stroke="#111" stroke-width="2"/>
  <text x="400" y="30" text-anchor="middle" font-family="Helvetica, Arial, sans-serif" font-size="14">Account Scoring Engine Firmware Module</text>
  <rect x="70" y="80" width="120" height="60" fill="none" stroke="#111" stroke-width="2"/>
  <text x="130" y="115" text-anchor="middle" font-family="Helvetica, Arial, sans-serif" font-size="10">Incoming Actions (21)</text>
  <line x1="190" y1="110" x2="240" y2="110" stroke="#111" stroke-width="2"/>
  <polygon points="240,105 250,110 240,115" fill="#111"/>
  <rect x="250" y="80" width="140" height="60" fill="none" stroke="#111" stroke-width="2"/>
  <text x="320" y="105" text-anchor="middle" font-family="Helvetica, Arial, sans-serif" font-size="10">48-hour Buffer (22)</text>
  <text x="320" y="120" text-anchor="middle" font-family="Helvetica, Arial, sans-serif" font-size="8">2^20 entries</text>
  <line x1="390" y1="110" x2="440" y2="110" stroke="#111" stroke-width="2"/>
  <polygon points="440,105 450,110 440,115" fill="#111"/>
  <rect x="450" y="80" width="140" height="60" fill="none" stroke="#111" stroke-width="2"/>
  <text x="520" y="115" text-anchor="middle" font-family="Helvetica, Arial, sans-serif" font-size="10">Activity Vector (24)</text>
  <line x1="520" y1="140" x2="520" y2="170" stroke="#111" stroke-width="1"/>
  <rect x="460" y="170" width="120" height="50" fill="none" stroke="#111" stroke-width="1"/>
  <text x="520" y="185" text-anchor="middle" font-family="Helvetica, Arial, sans-serif" font-size="8">ts (26) | type (28) | tgt (30)</text>
  <line x1="520" y1="220" x2="520" y2="260" stroke="#111" stroke-width="2"/>
  <polygon points="515,260 520,270 525,260" fill="#111"/>
  <rect x="400" y="270" width="240" height="60" fill="none" stroke="#111" stroke-width="2"/>
  <text x="520" y="295" text-anchor="middle" font-family="Helvetica, Arial, sans-serif" font-size="10">Lag-Sensitive Correlation (32)</text>
  <text x="520" y="310" text-anchor="middle" font-family="Helvetica, Arial, sans-serif" font-size="8">DTW normalized S > 0.85 (34)</text>
  <line x1="520" y1="330" x2="520" y2="360" stroke="#111" stroke-width="2"/>
  <polygon points="515,360 520,370 525,360" fill="#111"/>
  <rect x="400" y="370" width="240" height="40" fill="none" stroke="#111" stroke-width="2"/>
  <text x="520" y="395" text-anchor="middle" font-family="Helvetica, Arial, sans-serif" font-size="10">Adjacency List (36)</text>
  <line x1="520" y1="410" x2="520" y2="440" stroke="#111" stroke-width="2"/>
  <polygon points="515,440 520,450 525,440" fill="#111"/>
  <rect x="400" y="450" width="240" height="50" fill="none" stroke="#111" stroke-width="2"/>
  <text x="520" y="475" text-anchor="middle" font-family="Helvetica, Arial, sans-serif" font-size="10">Connected Components (38)</text>
  <text x="520" y="490" text-anchor="middle" font-family="Helvetica, Arial, sans-serif" font-size="8">Farm IDs (40) >50000 (42)</text>
  <line x1="640" y1="475" x2="680" y2="475" stroke="#111" stroke-width="2"/>
  <polygon points="680,470 690,475 680,480" fill="#111"/>
  <rect x="690" y="450" width="50" height="50" fill="none" stroke="#111" stroke-width="2"/>
  <text x="715" y="475" text-anchor="middle" font-family="Helvetica, Arial, sans-serif" font-size="8">Flag (44)</text>
  <text x="400" y="560" text-anchor="middle" font-family="Helvetica, Arial, sans-serif" font-size="12">FIG. 1</text>
</svg>